<svg width="367" height="205" viewBox="0 0 367 205" fill="none" xmlns="http://www.w3.org/2000/svg">
<g filter="url(#filter0_d)">
<g filter="url(#filter1_d)">
<rect x="60" y="40" width="246.815" height="85" rx="15" fill="white"/>
</g>
<circle cx="101.556" cy="82.1852" r="25.1852" fill="#FFE3DE"/>
<path fill-rule="evenodd" clip-rule="evenodd" d="M102.922 72.7244C102.291 74.9599 102.918 77.3619 104.56 79.0045C106.203 80.647 108.605 81.2736 110.841 80.6426V87.8777C110.841 89.809 109.275 91.3746 107.344 91.3746H95.6873C93.7559 91.3746 92.1903 89.809 92.1903 87.8777V76.2213C92.1903 74.29 93.7559 72.7244 95.6873 72.7244H102.922Z" fill="#FF715B"/>
<circle opacity="0.3" cx="108.796" cy="74.9444" r="2.83333" fill="#FF715B"/>
<path d="M153.213 65H151.731L147.272 58.253V65H145.79V55.952H147.272L151.731 62.686V55.952H153.213V65ZM158.266 65.117C157.59 65.117 156.979 64.9653 156.433 64.662C155.887 64.35 155.458 63.9167 155.146 63.362C154.834 62.7987 154.678 62.1487 154.678 61.412C154.678 60.684 154.838 60.0383 155.159 59.475C155.48 58.9117 155.917 58.4783 156.472 58.175C157.027 57.8717 157.646 57.72 158.331 57.72C159.016 57.72 159.635 57.8717 160.19 58.175C160.745 58.4783 161.182 58.9117 161.503 59.475C161.824 60.0383 161.984 60.684 161.984 61.412C161.984 62.14 161.819 62.7857 161.49 63.349C161.161 63.9123 160.71 64.35 160.138 64.662C159.575 64.9653 158.951 65.117 158.266 65.117ZM158.266 63.83C158.647 63.83 159.003 63.739 159.332 63.557C159.67 63.375 159.943 63.102 160.151 62.738C160.359 62.374 160.463 61.932 160.463 61.412C160.463 60.892 160.363 60.4543 160.164 60.099C159.965 59.735 159.7 59.462 159.371 59.28C159.042 59.098 158.686 59.007 158.305 59.007C157.924 59.007 157.568 59.098 157.239 59.28C156.918 59.462 156.663 59.735 156.472 60.099C156.281 60.4543 156.186 60.892 156.186 61.412C156.186 62.1833 156.381 62.7813 156.771 63.206C157.17 63.622 157.668 63.83 158.266 63.83ZM165.178 59.046V63.011C165.178 63.2797 165.239 63.4747 165.36 63.596C165.49 63.7087 165.707 63.765 166.01 63.765H166.92V65H165.75C165.083 65 164.571 64.844 164.216 64.532C163.861 64.22 163.683 63.713 163.683 63.011V59.046H162.838V57.837H163.683V56.056H165.178V57.837H166.92V59.046H165.178ZM169.04 56.888C168.771 56.888 168.546 56.797 168.364 56.615C168.182 56.433 168.091 56.2077 168.091 55.939C168.091 55.6703 168.182 55.445 168.364 55.263C168.546 55.081 168.771 54.99 169.04 54.99C169.3 54.99 169.521 55.081 169.703 55.263C169.885 55.445 169.976 55.6703 169.976 55.939C169.976 56.2077 169.885 56.433 169.703 56.615C169.521 56.797 169.3 56.888 169.04 56.888ZM169.768 57.837V65H168.286V57.837H169.768ZM174.717 59.046H173.391V65H171.896V59.046H171.051V57.837H171.896V57.33C171.896 56.5067 172.112 55.9087 172.546 55.536C172.988 55.1547 173.677 54.964 174.613 54.964V56.199C174.162 56.199 173.846 56.2857 173.664 56.459C173.482 56.6237 173.391 56.914 173.391 57.33V57.837H174.717V59.046ZM176.784 56.888C176.516 56.888 176.29 56.797 176.108 56.615C175.926 56.433 175.835 56.2077 175.835 55.939C175.835 55.6703 175.926 55.445 176.108 55.263C176.29 55.081 176.516 54.99 176.784 54.99C177.044 54.99 177.265 55.081 177.447 55.263C177.629 55.445 177.72 55.6703 177.72 55.939C177.72 56.2077 177.629 56.433 177.447 56.615C177.265 56.797 177.044 56.888 176.784 56.888ZM177.512 57.837V65H176.03V57.837H177.512ZM178.964 61.412C178.964 60.6753 179.111 60.0297 179.406 59.475C179.709 58.9117 180.125 58.4783 180.654 58.175C181.183 57.8717 181.789 57.72 182.474 57.72C183.341 57.72 184.056 57.928 184.619 58.344C185.191 58.7513 185.577 59.3363 185.776 60.099H184.177C184.047 59.7437 183.839 59.4663 183.553 59.267C183.267 59.0677 182.907 58.968 182.474 58.968C181.867 58.968 181.382 59.1847 181.018 59.618C180.663 60.0427 180.485 60.6407 180.485 61.412C180.485 62.1833 180.663 62.7857 181.018 63.219C181.382 63.6523 181.867 63.869 182.474 63.869C183.332 63.869 183.9 63.492 184.177 62.738H185.776C185.568 63.466 185.178 64.0467 184.606 64.48C184.034 64.9047 183.323 65.117 182.474 65.117C181.789 65.117 181.183 64.9653 180.654 64.662C180.125 64.35 179.709 63.9167 179.406 63.362C179.111 62.7987 178.964 62.1487 178.964 61.412ZM186.759 61.386C186.759 60.6667 186.906 60.0297 187.201 59.475C187.504 58.9203 187.911 58.4913 188.423 58.188C188.943 57.876 189.515 57.72 190.139 57.72C190.702 57.72 191.192 57.8327 191.608 58.058C192.032 58.2747 192.37 58.5477 192.622 58.877V57.837H194.117V65H192.622V63.934C192.37 64.272 192.028 64.5537 191.595 64.779C191.161 65.0043 190.667 65.117 190.113 65.117C189.497 65.117 188.934 64.961 188.423 64.649C187.911 64.3283 187.504 63.8863 187.201 63.323C186.906 62.751 186.759 62.1053 186.759 61.386ZM192.622 61.412C192.622 60.918 192.518 60.489 192.31 60.125C192.11 59.761 191.846 59.4837 191.517 59.293C191.187 59.1023 190.832 59.007 190.451 59.007C190.069 59.007 189.714 59.1023 189.385 59.293C189.055 59.475 188.787 59.748 188.579 60.112C188.379 60.4673 188.28 60.892 188.28 61.386C188.28 61.88 188.379 62.3133 188.579 62.686C188.787 63.0587 189.055 63.3447 189.385 63.544C189.723 63.7347 190.078 63.83 190.451 63.83C190.832 63.83 191.187 63.7347 191.517 63.544C191.846 63.3533 192.11 63.076 192.31 62.712C192.518 62.3393 192.622 61.906 192.622 61.412ZM197.792 59.046V63.011C197.792 63.2797 197.853 63.4747 197.974 63.596C198.104 63.7087 198.321 63.765 198.624 63.765H199.534V65H198.364C197.697 65 197.186 64.844 196.83 64.532C196.475 64.22 196.297 63.713 196.297 63.011V59.046H195.452V57.837H196.297V56.056H197.792V57.837H199.534V59.046H197.792ZM201.654 56.888C201.386 56.888 201.16 56.797 200.978 56.615C200.796 56.433 200.705 56.2077 200.705 55.939C200.705 55.6703 200.796 55.445 200.978 55.263C201.16 55.081 201.386 54.99 201.654 54.99C201.914 54.99 202.135 55.081 202.317 55.263C202.499 55.445 202.59 55.6703 202.59 55.939C202.59 56.2077 202.499 56.433 202.317 56.615C202.135 56.797 201.914 56.888 201.654 56.888ZM202.382 57.837V65H200.9V57.837H202.382ZM207.435 65.117C206.759 65.117 206.148 64.9653 205.602 64.662C205.056 64.35 204.627 63.9167 204.315 63.362C204.003 62.7987 203.847 62.1487 203.847 61.412C203.847 60.684 204.007 60.0383 204.328 59.475C204.649 58.9117 205.086 58.4783 205.641 58.175C206.196 57.8717 206.815 57.72 207.5 57.72C208.185 57.72 208.804 57.8717 209.359 58.175C209.914 58.4783 210.351 58.9117 210.672 59.475C210.993 60.0383 211.153 60.684 211.153 61.412C211.153 62.14 210.988 62.7857 210.659 63.349C210.33 63.9123 209.879 64.35 209.307 64.662C208.744 64.9653 208.12 65.117 207.435 65.117ZM207.435 63.83C207.816 63.83 208.172 63.739 208.501 63.557C208.839 63.375 209.112 63.102 209.32 62.738C209.528 62.374 209.632 61.932 209.632 61.412C209.632 60.892 209.532 60.4543 209.333 60.099C209.134 59.735 208.869 59.462 208.54 59.28C208.211 59.098 207.855 59.007 207.474 59.007C207.093 59.007 206.737 59.098 206.408 59.28C206.087 59.462 205.832 59.735 205.641 60.099C205.45 60.4543 205.355 60.892 205.355 61.412C205.355 62.1833 205.55 62.7813 205.94 63.206C206.339 63.622 206.837 63.83 207.435 63.83ZM216.232 57.72C216.795 57.72 217.298 57.837 217.74 58.071C218.191 58.305 218.542 58.6517 218.793 59.111C219.044 59.5703 219.17 60.125 219.17 60.775V65H217.701V60.996C217.701 60.3547 217.541 59.865 217.22 59.527C216.899 59.1803 216.462 59.007 215.907 59.007C215.352 59.007 214.91 59.1803 214.581 59.527C214.26 59.865 214.1 60.3547 214.1 60.996V65H212.618V57.837H214.1V58.656C214.343 58.3613 214.65 58.1317 215.023 57.967C215.404 57.8023 215.807 57.72 216.232 57.72Z" fill="#858A8F"/>
<path d="M151.538 77.6172C151.491 77.183 151.297 76.8449 150.956 76.603C150.615 76.361 150.169 76.2401 149.619 76.2401C149.042 76.2401 148.591 76.366 148.266 76.6179C147.942 76.8665 147.777 77.183 147.774 77.5675C147.771 77.8492 147.855 78.0829 148.028 78.2685C148.2 78.4508 148.419 78.5966 148.684 78.706C148.952 78.8153 149.226 78.9032 149.504 78.9695L150.459 79.2081C150.969 79.3274 151.451 79.5047 151.906 79.7401C152.363 79.9721 152.734 80.2836 153.019 80.6747C153.308 81.0625 153.452 81.5514 153.452 82.1413C153.448 83.0395 153.109 83.767 152.433 84.3239C151.756 84.8774 150.808 85.1541 149.589 85.1541C148.402 85.1541 147.456 84.8807 146.75 84.3338C146.044 83.7836 145.673 83.0031 145.636 81.9922H147.451C147.487 82.5258 147.706 82.9235 148.107 83.1854C148.508 83.4472 148.997 83.5781 149.574 83.5781C150.177 83.5781 150.666 83.4455 151.04 83.1804C151.415 82.9119 151.604 82.5606 151.607 82.1264C151.604 81.732 151.435 81.4337 151.1 81.2315C150.769 81.026 150.328 80.8537 149.778 80.7145L148.619 80.4162C147.781 80.2008 147.118 79.8743 146.631 79.4368C146.147 78.996 145.905 78.411 145.905 77.6818C145.905 77.0819 146.067 76.5566 146.392 76.1058C146.717 75.6551 147.161 75.3054 147.724 75.0568C148.291 74.8049 148.931 74.679 149.643 74.679C150.366 74.679 151.001 74.8049 151.548 75.0568C152.094 75.3054 152.522 75.6518 152.83 76.0959C153.142 76.5367 153.303 77.0438 153.312 77.6172H151.538ZM158.397 85.1491C157.632 85.1491 156.97 84.9884 156.414 84.6669C155.86 84.3454 155.434 83.8913 155.136 83.3047C154.838 82.718 154.688 82.0253 154.688 81.2266C154.688 80.4411 154.838 79.7517 155.136 79.1584C155.434 78.5618 155.853 78.0978 156.394 77.7663C156.937 77.4316 157.574 77.2642 158.303 77.2642C158.929 77.2642 159.508 77.4001 160.038 77.6719C160.568 77.9403 160.992 78.3596 161.311 78.9297C161.632 79.4964 161.793 80.2273 161.793 81.1222V81.674H156.473C156.483 82.3269 156.664 82.8357 157.015 83.2003C157.37 83.5649 157.839 83.7472 158.422 83.7472C158.81 83.7472 159.145 83.6643 159.426 83.4986C159.711 83.3295 159.915 83.0843 160.038 82.7628L161.718 82.9517C161.559 83.6146 161.188 84.1465 160.605 84.5476C160.025 84.9486 159.289 85.1491 158.397 85.1491ZM156.478 80.4609H160.068C160.064 79.9406 159.902 79.5114 159.58 79.1733C159.262 78.8352 158.845 78.6662 158.328 78.6662C157.791 78.6662 157.355 78.8435 157.02 79.1982C156.685 79.5528 156.505 79.9737 156.478 80.4609ZM165.115 80.5256V85H163.315V77.3636H165.036V78.6612H165.125C165.301 78.237 165.581 77.8989 165.965 77.647C166.353 77.3918 166.832 77.2642 167.402 77.2642C168.191 77.2642 168.824 77.5144 169.301 78.0149C169.782 78.5154 170.02 79.223 170.017 80.1378V85H168.217V80.4162C168.217 79.9058 168.085 79.5064 167.82 79.218C167.558 78.9297 167.195 78.7855 166.731 78.7855C166.257 78.7855 165.869 78.938 165.567 79.2429C165.266 79.5445 165.115 79.9721 165.115 80.5256ZM174.68 85.1342C174.08 85.1342 173.544 84.9801 173.07 84.6719C172.596 84.3636 172.221 83.9162 171.946 83.3295C171.671 82.7429 171.533 82.0303 171.533 81.1918C171.533 80.3433 171.673 79.6274 171.951 79.044C172.233 78.4607 172.612 78.0182 173.089 77.7166C173.567 77.415 174.099 77.2642 174.685 77.2642C175.136 77.2642 175.504 77.3404 175.789 77.4929C176.077 77.642 176.306 77.8227 176.475 78.0348C176.647 78.2436 176.778 78.4408 176.868 78.6264H176.942V74.8182H178.747V85H176.977V83.7969H176.868C176.775 83.9825 176.641 84.1797 176.465 84.3885C176.29 84.594 176.058 84.7696 175.769 84.9155C175.481 85.0613 175.118 85.1342 174.68 85.1342ZM175.183 83.6577C175.756 83.6577 176.198 83.4306 176.51 82.9766C176.821 82.5192 176.977 81.9209 176.977 81.1818C176.977 80.4394 176.823 79.8478 176.515 79.407C176.207 78.9628 175.763 78.7408 175.183 78.7408C174.583 78.7408 174.13 78.9695 173.825 79.4268C173.52 79.8842 173.368 80.4692 173.368 81.1818C173.368 81.8977 173.522 82.4893 173.83 82.9567C174.138 83.424 174.589 83.6577 175.183 83.6577ZM186.335 85.1541C185.606 85.1541 184.998 84.9586 184.51 84.5675C184.023 84.1764 183.78 83.6063 183.78 82.8572C183.78 82.2839 183.917 81.8397 184.192 81.5249C184.471 81.2067 184.83 80.9763 185.271 80.8338C185.715 80.688 186.184 80.5885 186.678 80.5355C187.351 80.4626 187.833 80.3946 188.125 80.3317C188.42 80.2687 188.567 80.108 188.567 79.8494V79.8196C188.567 79.4451 188.456 79.1551 188.234 78.9496C188.012 78.7441 187.692 78.6413 187.275 78.6413C186.834 78.6413 186.484 78.7375 186.226 78.9297C185.97 79.1219 185.798 79.349 185.709 79.6108L184.028 79.3722C184.227 78.6761 184.615 78.1508 185.192 77.7962C185.772 77.4415 186.463 77.2642 187.265 77.2642C187.629 77.2642 187.994 77.3073 188.358 77.3935C188.723 77.4796 189.056 77.6222 189.358 77.821C189.663 78.0199 189.906 78.2884 190.089 78.6264C190.274 78.9645 190.367 79.3854 190.367 79.8892V85H188.637V83.951H188.577C188.415 84.2725 188.15 84.5542 187.782 84.7962C187.417 85.0348 186.935 85.1541 186.335 85.1541ZM186.802 83.8317C187.346 83.8317 187.777 83.6759 188.095 83.3643C188.413 83.0528 188.572 82.6849 188.572 82.2607V81.3608C188.496 81.4238 188.355 81.4801 188.15 81.5298C187.948 81.5762 187.732 81.616 187.503 81.6491C187.275 81.6823 187.081 81.7105 186.922 81.7337C186.521 81.79 186.186 81.901 185.917 82.0668C185.649 82.2292 185.515 82.4827 185.515 82.8274C185.515 83.1589 185.636 83.4091 185.878 83.5781C186.12 83.7472 186.428 83.8317 186.802 83.8317ZM195.649 85V77.3636H197.369V78.6612H197.459C197.618 78.227 197.882 77.8857 198.249 77.6371C198.617 77.3885 199.057 77.2642 199.567 77.2642C200.081 77.2642 200.517 77.3885 200.874 77.6371C201.232 77.8857 201.484 78.227 201.63 78.6612H201.71C201.879 78.237 202.164 77.8989 202.565 77.647C202.969 77.3918 203.448 77.2642 204.002 77.2642C204.704 77.2642 205.278 77.4863 205.722 77.9304C206.166 78.3745 206.388 79.0225 206.388 79.8743V85H204.583V80.1527C204.583 79.6787 204.457 79.3324 204.205 79.1136C203.954 78.8916 203.645 78.7805 203.281 78.7805C202.847 78.7805 202.507 78.9164 202.262 79.1882C202.02 79.4567 201.899 79.8063 201.899 80.2372V85H200.134V80.0781C200.134 79.6837 200.014 79.3688 199.776 79.1335C199.54 78.8982 199.232 78.7805 198.851 78.7805C198.463 78.7805 198.132 78.9264 197.857 79.218C197.585 79.5064 197.449 79.8859 197.449 80.3565V85H195.649ZM211.594 85.1491C210.829 85.1491 210.168 84.9884 209.611 84.6669C209.057 84.3454 208.631 83.8913 208.333 83.3047C208.035 82.718 207.886 82.0253 207.886 81.2266C207.886 80.4411 208.035 79.7517 208.333 79.1584C208.631 78.5618 209.051 78.0978 209.591 77.7663C210.134 77.4316 210.771 77.2642 211.5 77.2642C212.126 77.2642 212.705 77.4001 213.235 77.6719C213.765 77.9403 214.19 78.3596 214.508 78.9297C214.829 79.4964 214.99 80.2273 214.99 81.1222V81.674H209.67C209.68 82.3269 209.861 82.8357 210.212 83.2003C210.567 83.5649 211.036 83.7472 211.619 83.7472C212.007 83.7472 212.342 83.6643 212.624 83.4986C212.909 83.3295 213.112 83.0843 213.235 82.7628L214.915 82.9517C214.756 83.6146 214.385 84.1465 213.802 84.5476C213.222 84.9486 212.486 85.1491 211.594 85.1491ZM209.675 80.4609H213.265C213.262 79.9406 213.099 79.5114 212.778 79.1733C212.46 78.8352 212.042 78.6662 211.525 78.6662C210.988 78.6662 210.552 78.8435 210.217 79.1982C209.883 79.5528 209.702 79.9737 209.675 80.4609ZM222.548 79.3821L220.907 79.5611C220.838 79.3092 220.689 79.0871 220.46 78.8949C220.235 78.7027 219.915 78.6065 219.501 78.6065C219.126 78.6065 218.811 78.6877 218.556 78.8501C218.304 79.0125 218.18 79.223 218.183 79.4815C218.18 79.7036 218.261 79.8859 218.427 80.0284C218.596 80.1676 218.874 80.2803 219.262 80.3665L220.564 80.6449C221.993 80.9564 222.709 81.6458 222.712 82.7131C222.712 83.1937 222.573 83.6179 222.295 83.9858C222.016 84.3504 221.632 84.6354 221.141 84.8409C220.651 85.0464 220.087 85.1491 219.451 85.1491C218.513 85.1491 217.76 84.9519 217.194 84.5575C216.627 84.1631 216.287 83.6162 216.175 82.9169L217.93 82.7479C218.085 83.4439 218.591 83.7919 219.446 83.7919C219.873 83.7919 220.216 83.7057 220.475 83.5334C220.737 83.3577 220.868 83.139 220.868 82.8771C220.868 82.4496 220.525 82.1596 219.839 82.0071L218.536 81.7337C217.804 81.5812 217.262 81.3243 216.91 80.9631C216.559 80.5985 216.385 80.1378 216.388 79.581C216.388 79.1103 216.518 78.7027 216.776 78.358C217.035 78.0099 217.396 77.7415 217.86 77.5526C218.324 77.3603 218.863 77.2642 219.476 77.2642C220.371 77.2642 221.075 77.4564 221.589 77.8409C222.106 78.2221 222.425 78.7358 222.548 79.3821ZM230.232 79.3821L228.591 79.5611C228.521 79.3092 228.372 79.0871 228.144 78.8949C227.918 78.7027 227.598 78.6065 227.184 78.6065C226.81 78.6065 226.495 78.6877 226.24 78.8501C225.988 79.0125 225.863 79.223 225.867 79.4815C225.863 79.7036 225.945 79.8859 226.11 80.0284C226.279 80.1676 226.558 80.2803 226.945 80.3665L228.248 80.6449C229.677 80.9564 230.392 81.6458 230.396 82.7131C230.396 83.1937 230.257 83.6179 229.978 83.9858C229.7 84.3504 229.315 84.6354 228.825 84.8409C228.334 85.0464 227.771 85.1491 227.134 85.1491C226.196 85.1491 225.444 84.9519 224.877 84.5575C224.311 84.1631 223.971 83.6162 223.858 82.9169L225.613 82.7479C225.769 83.4439 226.274 83.7919 227.129 83.7919C227.557 83.7919 227.9 83.7057 228.159 83.5334C228.42 83.3577 228.551 83.139 228.551 82.8771C228.551 82.4496 228.208 82.1596 227.522 82.0071L226.22 81.7337C225.487 81.5812 224.945 81.3243 224.594 80.9631C224.243 80.5985 224.069 80.1378 224.072 79.581C224.072 79.1103 224.201 78.7027 224.46 78.358C224.718 78.0099 225.079 77.7415 225.544 77.5526C226.008 77.3603 226.546 77.2642 227.159 77.2642C228.054 77.2642 228.758 77.4564 229.272 77.8409C229.789 78.2221 230.109 78.7358 230.232 79.3821ZM234.077 85.1541C233.348 85.1541 232.74 84.9586 232.253 84.5675C231.765 84.1764 231.522 83.6063 231.522 82.8572C231.522 82.2839 231.659 81.8397 231.934 81.5249C232.213 81.2067 232.573 80.9763 233.013 80.8338C233.457 80.688 233.926 80.5885 234.42 80.5355C235.093 80.4626 235.575 80.3946 235.867 80.3317C236.162 80.2687 236.309 80.108 236.309 79.8494V79.8196C236.309 79.4451 236.198 79.1551 235.976 78.9496C235.754 78.7441 235.434 78.6413 235.017 78.6413C234.576 78.6413 234.226 78.7375 233.968 78.9297C233.713 79.1219 233.54 79.349 233.451 79.6108L231.77 79.3722C231.969 78.6761 232.357 78.1508 232.934 77.7962C233.514 77.4415 234.205 77.2642 235.007 77.2642C235.372 77.2642 235.736 77.3073 236.101 77.3935C236.465 77.4796 236.798 77.6222 237.1 77.821C237.405 78.0199 237.648 78.2884 237.831 78.6264C238.016 78.9645 238.109 79.3854 238.109 79.8892V85H236.379V83.951H236.319C236.157 84.2725 235.892 84.5542 235.524 84.7962C235.159 85.0348 234.677 85.1541 234.077 85.1541ZM234.545 83.8317C235.088 83.8317 235.519 83.6759 235.837 83.3643C236.155 83.0528 236.314 82.6849 236.314 82.2607V81.3608C236.238 81.4238 236.097 81.4801 235.892 81.5298C235.69 81.5762 235.474 81.616 235.246 81.6491C235.017 81.6823 234.823 81.7105 234.664 81.7337C234.263 81.79 233.928 81.901 233.66 82.0668C233.391 82.2292 233.257 82.4827 233.257 82.8274C233.257 83.1589 233.378 83.4091 233.62 83.5781C233.862 83.7472 234.17 83.8317 234.545 83.8317ZM243.24 88.0227C242.269 88.0227 241.505 87.8338 240.948 87.456C240.394 87.0814 240.035 86.6274 239.869 86.0938L241.49 85.701C241.599 85.9231 241.788 86.1385 242.057 86.3473C242.325 86.5561 242.729 86.6605 243.27 86.6605C243.783 86.6605 244.206 86.5362 244.537 86.2876C244.872 86.0391 245.04 85.6347 245.04 85.0746V83.6278H244.95C244.857 83.8134 244.721 84.004 244.542 84.1996C244.367 84.3951 244.133 84.5592 243.841 84.6918C243.553 84.8243 243.19 84.8906 242.753 84.8906C242.166 84.8906 241.634 84.7531 241.157 84.478C240.683 84.1996 240.305 83.7836 240.023 83.2301C239.745 82.6766 239.606 81.9856 239.606 81.157C239.606 80.3184 239.745 79.6108 240.023 79.0341C240.305 78.4541 240.684 78.0149 241.162 77.7166C241.639 77.415 242.171 77.2642 242.758 77.2642C243.208 77.2642 243.578 77.3404 243.866 77.4929C244.158 77.642 244.388 77.8227 244.557 78.0348C244.73 78.2436 244.861 78.4408 244.95 78.6264H245.05V77.3636H246.824V85.1243C246.824 85.7739 246.669 86.3125 246.357 86.7401C246.046 87.1709 245.62 87.4924 245.079 87.7045C244.542 87.9167 243.929 88.0227 243.24 88.0227ZM243.255 83.4787C243.828 83.4787 244.271 83.2732 244.582 82.8622C244.894 82.4479 245.05 81.8762 245.05 81.147C245.05 80.4245 244.895 79.8428 244.587 79.402C244.279 78.9612 243.835 78.7408 243.255 78.7408C242.655 78.7408 242.202 78.9695 241.898 79.4268C241.593 79.8809 241.44 80.4543 241.44 81.147C241.44 81.8497 241.594 82.4148 241.903 82.8423C242.211 83.2666 242.662 83.4787 243.255 83.4787ZM252.05 85.1491C251.284 85.1491 250.623 84.9884 250.066 84.6669C249.512 84.3454 249.086 83.8913 248.788 83.3047C248.49 82.718 248.341 82.0253 248.341 81.2266C248.341 80.4411 248.49 79.7517 248.788 79.1584C249.086 78.5618 249.506 78.0978 250.046 77.7663C250.59 77.4316 251.226 77.2642 251.955 77.2642C252.581 77.2642 253.16 77.4001 253.69 77.6719C254.22 77.9403 254.645 78.3596 254.963 78.9297C255.284 79.4964 255.445 80.2273 255.445 81.1222V81.674H250.126C250.135 82.3269 250.316 82.8357 250.667 83.2003C251.022 83.5649 251.491 83.7472 252.074 83.7472C252.462 83.7472 252.797 83.6643 253.079 83.4986C253.364 83.3295 253.568 83.0843 253.69 82.7628L255.371 82.9517C255.211 83.6146 254.84 84.1465 254.257 84.5476C253.677 84.9486 252.941 85.1491 252.05 85.1491ZM250.131 80.4609H253.72C253.717 79.9406 253.554 79.5114 253.233 79.1733C252.915 78.8352 252.497 78.6662 251.98 78.6662C251.443 78.6662 251.007 78.8435 250.672 79.1982C250.338 79.5528 250.157 79.9737 250.131 80.4609ZM264.254 77.3636V78.7557H262.747V82.7031C262.747 83.0644 262.827 83.303 262.986 83.419C263.145 83.5317 263.337 83.5881 263.562 83.5881C263.675 83.5881 263.778 83.5798 263.871 83.5632C263.967 83.5466 264.04 83.5317 264.089 83.5185L264.393 84.9254C264.297 84.9586 264.159 84.995 263.98 85.0348C263.804 85.0746 263.589 85.0978 263.334 85.1044C262.658 85.1243 262.089 84.9586 261.629 84.6072C261.171 84.2559 260.944 83.7206 260.947 83.0014V78.7557H259.864V77.3636H260.947V75.5341H262.747V77.3636H264.254ZM269.008 85.1491C268.262 85.1491 267.616 84.9851 267.069 84.657C266.522 84.3288 266.098 83.8698 265.796 83.2798C265.498 82.6866 265.349 81.9972 265.349 81.2116C265.349 80.4228 265.498 79.7334 265.796 79.1435C266.098 78.5502 266.522 78.0895 267.069 77.7614C267.616 77.4299 268.262 77.2642 269.008 77.2642C269.753 77.2642 270.4 77.4299 270.947 77.7614C271.497 78.0895 271.921 78.5502 272.219 79.1435C272.518 79.7334 272.667 80.4228 272.667 81.2116C272.667 81.9972 272.518 82.6866 272.219 83.2798C271.921 83.8698 271.497 84.3288 270.947 84.657C270.4 84.9851 269.753 85.1491 269.008 85.1491ZM269.018 83.7074C269.425 83.7074 269.763 83.5964 270.032 83.3743C270.304 83.1522 270.506 82.8523 270.638 82.4744C270.774 82.0933 270.842 81.6707 270.842 81.2067C270.842 80.7393 270.774 80.3168 270.638 79.9389C270.506 79.5578 270.304 79.2545 270.032 79.0291C269.763 78.8037 269.425 78.6911 269.018 78.6911C268.607 78.6911 268.264 78.8037 267.988 79.0291C267.717 79.2545 267.513 79.5578 267.377 79.9389C267.241 80.3168 267.173 80.7393 267.173 81.2067C267.173 81.6707 267.241 82.0933 267.377 82.4744C267.513 82.8523 267.717 83.1522 267.988 83.3743C268.264 83.5964 268.607 83.7074 269.018 83.7074ZM147.849 94.8182V105H146.004V94.8182H147.849ZM151.566 94.8182V105H149.767V94.8182H151.566ZM154.536 107.864C154.29 107.864 154.063 107.844 153.854 107.804C153.649 107.768 153.485 107.724 153.362 107.675L153.78 106.273C154.174 106.385 154.506 106.405 154.774 106.332C155.043 106.259 155.26 106.006 155.425 105.572L155.58 105.159L152.81 97.3636H154.719L156.479 103.131H156.559L158.324 97.3636H160.238L157.18 105.925C156.965 106.535 156.645 107.01 156.221 107.352C155.8 107.693 155.238 107.864 154.536 107.864ZM163.462 105.154C162.733 105.154 162.125 104.959 161.637 104.567C161.15 104.176 160.907 103.606 160.907 102.857C160.907 102.284 161.044 101.84 161.319 101.525C161.598 101.207 161.957 100.976 162.398 100.834C162.842 100.688 163.311 100.589 163.805 100.536C164.478 100.463 164.96 100.395 165.252 100.332C165.547 100.269 165.694 100.108 165.694 99.8494V99.8196C165.694 99.4451 165.583 99.1551 165.361 98.9496C165.139 98.7441 164.819 98.6413 164.402 98.6413C163.961 98.6413 163.611 98.7375 163.353 98.9297C163.097 99.1219 162.925 99.349 162.836 99.6108L161.155 99.3722C161.354 98.6761 161.742 98.1508 162.319 97.7962C162.899 97.4415 163.59 97.2642 164.392 97.2642C164.756 97.2642 165.121 97.3073 165.485 97.3935C165.85 97.4796 166.183 97.6222 166.485 97.821C166.79 98.0199 167.033 98.2884 167.216 98.6264C167.401 98.9645 167.494 99.3854 167.494 99.8892V105H165.764V103.951H165.704C165.542 104.272 165.277 104.554 164.909 104.796C164.544 105.035 164.062 105.154 163.462 105.154ZM163.929 103.832C164.473 103.832 164.904 103.676 165.222 103.364C165.54 103.053 165.699 102.685 165.699 102.261V101.361C165.623 101.424 165.482 101.48 165.277 101.53C165.074 101.576 164.859 101.616 164.63 101.649C164.402 101.682 164.208 101.71 164.049 101.734C163.648 101.79 163.313 101.901 163.044 102.067C162.776 102.229 162.642 102.483 162.642 102.827C162.642 103.159 162.763 103.409 163.005 103.578C163.247 103.747 163.555 103.832 163.929 103.832ZM172.667 105V103.852L177.887 96.3643H172.637V94.8182H180.174V95.9666L174.959 103.454H180.204V105H172.667ZM181.909 105V97.3636H183.709V105H181.909ZM182.814 96.2798C182.526 96.2798 182.279 96.1854 182.073 95.9964C181.871 95.8042 181.77 95.5739 181.77 95.3054C181.77 95.0336 181.871 94.8033 182.073 94.6143C182.279 94.4221 182.526 94.326 182.814 94.326C183.099 94.326 183.343 94.4221 183.545 94.6143C183.75 94.8033 183.853 95.0336 183.853 95.3054C183.853 95.5739 183.75 95.8042 183.545 95.9964C183.343 96.1854 183.099 96.2798 182.814 96.2798ZM187.359 100.526V105H185.559V97.3636H187.28V98.6612H187.369C187.545 98.237 187.825 97.8989 188.209 97.647C188.597 97.3918 189.076 97.2642 189.646 97.2642C190.435 97.2642 191.068 97.5144 191.545 98.0149C192.026 98.5154 192.265 99.223 192.261 100.138V105H190.461V100.416C190.461 99.9058 190.329 99.5064 190.064 99.218C189.802 98.9297 189.439 98.7855 188.975 98.7855C188.501 98.7855 188.113 98.938 187.812 99.2429C187.51 99.5445 187.359 99.9721 187.359 100.526ZM197.422 105.149C196.663 105.149 196.01 104.982 195.463 104.647C194.916 104.312 194.495 103.848 194.2 103.255C193.908 102.662 193.763 101.981 193.763 101.212C193.763 100.433 193.912 99.7483 194.21 99.1584C194.508 98.5651 194.929 98.1011 195.473 97.7663C196.02 97.4316 196.666 97.2642 197.412 97.2642C198.035 97.2642 198.585 97.3786 199.062 97.6072C199.54 97.8326 199.921 98.1508 200.206 98.5618C200.491 98.9728 200.653 99.455 200.693 100.009H198.973C198.903 99.6406 198.738 99.334 198.476 99.0888C198.217 98.8402 197.871 98.7159 197.437 98.7159C196.883 98.7159 196.436 98.9347 196.094 99.3722C195.756 99.8063 195.587 100.41 195.587 101.182C195.587 101.961 195.755 102.572 196.089 103.016C196.427 103.46 196.876 103.683 197.437 103.683C197.831 103.683 198.166 103.57 198.441 103.344C198.719 103.119 198.897 102.801 198.973 102.39H200.693C200.65 102.93 200.491 103.407 200.216 103.822C199.941 104.236 199.566 104.561 199.092 104.796C198.618 105.031 198.061 105.149 197.422 105.149ZM203.971 100.526V105H202.171V94.8182H203.931V98.6612H204.02C204.196 98.227 204.471 97.8857 204.846 97.6371C205.223 97.3885 205.706 97.2642 206.292 97.2642C207.084 97.2642 207.721 97.5128 208.201 98.0099C208.682 98.5071 208.922 99.2164 208.922 100.138V105H207.123V100.416C207.123 99.9025 206.99 99.5031 206.725 99.218C206.463 98.9297 206.095 98.7855 205.621 98.7855C205.141 98.7855 204.744 98.938 204.433 99.2429C204.125 99.5445 203.971 99.9721 203.971 100.526ZM214.137 105.149C213.372 105.149 212.711 104.988 212.154 104.667C211.6 104.345 211.174 103.891 210.876 103.305C210.578 102.718 210.429 102.025 210.429 101.227C210.429 100.441 210.578 99.7517 210.876 99.1584C211.174 98.5618 211.594 98.0978 212.134 97.7663C212.677 97.4316 213.314 97.2642 214.043 97.2642C214.669 97.2642 215.248 97.4001 215.778 97.6719C216.308 97.9403 216.733 98.3596 217.051 98.9297C217.372 99.4964 217.533 100.227 217.533 101.122V101.674H212.213C212.223 102.327 212.404 102.836 212.755 103.2C213.11 103.565 213.579 103.747 214.162 103.747C214.55 103.747 214.885 103.664 215.167 103.499C215.452 103.33 215.655 103.084 215.778 102.763L217.458 102.952C217.299 103.615 216.928 104.147 216.345 104.548C215.765 104.949 215.029 105.149 214.137 105.149ZM212.218 100.461H215.808C215.805 99.9406 215.642 99.5114 215.321 99.1733C215.002 98.8352 214.585 98.6662 214.068 98.6662C213.531 98.6662 213.095 98.8435 212.76 99.1982C212.426 99.5528 212.245 99.9737 212.218 100.461ZM220.855 100.526V105H219.056V97.3636H220.776V98.6612H220.865C221.041 98.237 221.321 97.8989 221.705 97.647C222.093 97.3918 222.572 97.2642 223.142 97.2642C223.931 97.2642 224.564 97.5144 225.041 98.0149C225.522 98.5154 225.761 99.223 225.757 100.138V105H223.958V100.416C223.958 99.9058 223.825 99.5064 223.56 99.218C223.298 98.9297 222.935 98.7855 222.471 98.7855C221.997 98.7855 221.609 98.938 221.308 99.2429C221.006 99.5445 220.855 99.9721 220.855 100.526ZM227.587 105V94.8182H229.387V100.431H229.511L232.255 97.3636H234.358L231.4 100.66L234.532 105H232.379L230.043 101.734L229.387 102.435V105H227.587ZM238.574 105.149C237.828 105.149 237.182 104.985 236.635 104.657C236.088 104.329 235.664 103.87 235.362 103.28C235.064 102.687 234.915 101.997 234.915 101.212C234.915 100.423 235.064 99.7334 235.362 99.1435C235.664 98.5502 236.088 98.0895 236.635 97.7614C237.182 97.4299 237.828 97.2642 238.574 97.2642C239.32 97.2642 239.966 97.4299 240.513 97.7614C241.063 98.0895 241.487 98.5502 241.786 99.1435C242.084 99.7334 242.233 100.423 242.233 101.212C242.233 101.997 242.084 102.687 241.786 103.28C241.487 103.87 241.063 104.329 240.513 104.657C239.966 104.985 239.32 105.149 238.574 105.149ZM238.584 103.707C238.992 103.707 239.33 103.596 239.598 103.374C239.87 103.152 240.072 102.852 240.205 102.474C240.341 102.093 240.409 101.671 240.409 101.207C240.409 100.739 240.341 100.317 240.205 99.9389C240.072 99.5578 239.87 99.2545 239.598 99.0291C239.33 98.8037 238.992 98.6911 238.584 98.6911C238.173 98.6911 237.83 98.8037 237.555 99.0291C237.283 99.2545 237.079 99.5578 236.943 99.9389C236.807 100.317 236.74 100.739 236.74 101.207C236.74 101.671 236.807 102.093 236.943 102.474C237.079 102.852 237.283 103.152 237.555 103.374C237.83 103.596 238.173 103.707 238.584 103.707Z" fill="#333333"/>
</g>
<defs>
<filter id="filter0_d" x="0" y="0" width="366.815" height="205" filterUnits="userSpaceOnUse" color-interpolation-filters="sRGB">
<feFlood flood-opacity="0" result="BackgroundImageFix"/>
<feColorMatrix in="SourceAlpha" type="matrix" values="0 0 0 0 0 0 0 0 0 0 0 0 0 0 0 0 0 0 127 0"/>
<feMorphology radius="10" operator="dilate" in="SourceAlpha" result="effect1_dropShadow"/>
<feOffset dy="20"/>
<feGaussianBlur stdDeviation="25"/>
<feColorMatrix type="matrix" values="0 0 0 0 0.866667 0 0 0 0 0.866667 0 0 0 0 0.866667 0 0 0 0.2 0"/>
<feBlend mode="normal" in2="BackgroundImageFix" result="effect1_dropShadow"/>
<feBlend mode="normal" in="SourceGraphic" in2="effect1_dropShadow" result="shape"/>
</filter>
<filter id="filter1_d" x="0" y="0" width="366.815" height="205" filterUnits="userSpaceOnUse" color-interpolation-filters="sRGB">
<feFlood flood-opacity="0" result="BackgroundImageFix"/>
<feColorMatrix in="SourceAlpha" type="matrix" values="0 0 0 0 0 0 0 0 0 0 0 0 0 0 0 0 0 0 127 0"/>
<feMorphology radius="10" operator="dilate" in="SourceAlpha" result="effect1_dropShadow"/>
<feOffset dy="20"/>
<feGaussianBlur stdDeviation="25"/>
<feColorMatrix type="matrix" values="0 0 0 0 0.866667 0 0 0 0 0.866667 0 0 0 0 0.866667 0 0 0 0.2 0"/>
<feBlend mode="normal" in2="BackgroundImageFix" result="effect1_dropShadow"/>
<feBlend mode="normal" in="SourceGraphic" in2="effect1_dropShadow" result="shape"/>
</filter>
</defs>
</svg>
